<svg width="32" height="29" fill="none" xmlns="http://www.w3.org/2000/svg"><path d="M7.417 27.155a2.18 2.18 0 01-.164-.743v-.092a2.18 2.18 0 112.18 2.18h0a2.18 2.18 0 01-2.016-1.345zm3.136-6.969h-.002a.686.686 0 01-.661-.501L5.057 2.23l-.102-.367H1.182a.682.682 0 110-1.364h4.283a.683.683 0 01.66.501h0l4.833 17.455.102.367h13.885l.131-.3L29.46 8.475l.306-.7h-15.38a.683.683 0 110-1.365h16.428a.678.678 0 01.567.307h.001a.692.692 0 01.059.65v.002l-5.404 12.407s0 0 0 0a.685.685 0 01-.627.41H10.553zM26.212 28.5a1.977 1.977 0 11.178 0h-.178z" fill="#272727" stroke="#000"/></svg>